<svg width="216" height="25" viewBox="0 0 216 25" fill="none" xmlns="http://www.w3.org/2000/svg">
<path d="M100.512 8.39336C100.512 11.3453 99.3689 11.7444 95.5619 11.8116V12.0763C99.3689 12.1079 100.512 12.5426 100.512 15.5261V19.5055C100.512 21.6275 99.6377 24.1171 95.8306 24.1171H89.5644V0.331951H95.3252C100.312 0.331951 100.512 2.8215 100.512 5.20831V8.39336ZM95.0564 11.5112C95.5939 11.5112 95.7303 11.2781 95.7303 10.4482V5.23993C95.7303 4.60766 95.5939 4.27967 95.0243 4.27967H94.3503V11.5112H95.0564ZM95.7303 13.4041C95.7303 12.5426 95.5939 12.3095 95.0564 12.3095H94.3503V20.1733H95.0243C95.598 20.1733 95.7303 19.8414 95.7303 19.1775V13.4041Z" fill="white"/>
<path d="M112.399 19.4422C112.399 21.5011 112.467 23.058 113.105 24.121H108.086C107.649 23.1924 107.613 21.2679 107.613 19.6438V14.6331C107.613 13.9692 107.444 13.8032 106.939 13.8032H106.233V24.121H101.451V0.331951H107.481C112.194 0.331951 112.399 2.8215 112.399 5.20831V9.38918C112.399 12.4399 111.288 13.2025 107.517 13.2381V13.5029C111.288 13.5345 112.399 14.0324 112.399 17.4506V19.4422ZM106.943 13.005C107.448 13.005 107.617 12.7402 107.617 12.0447V5.34267C107.617 4.67879 107.38 4.41403 106.943 4.41403H106.237V13.005H106.943Z" fill="white"/>
<path d="M120.719 24.1171L120.482 19.3711H118.729L118.493 24.1171H113.406L116.334 0.327996H122.869L125.798 24.1171H120.711H120.719ZM118.765 18.5452H120.414L119.708 4.91193H119.439L118.765 18.5452Z" fill="white"/>
<path d="M126.311 24.1171V0.331951H130.519L132.405 13.4357H132.674V0.331951H137.287V24.121H133.043L131.057 9.55515H130.788V24.121H126.307L126.311 24.1171Z" fill="white"/>
<path d="M143.89 0.331951C148.873 0.331951 149.378 3.68297 149.378 6.06978V18.3437C149.378 20.766 148.873 24.1171 143.89 24.1171H138.434V0.331951H143.89ZM144.596 5.24388C144.596 4.61161 144.428 4.28362 143.89 4.28362H143.216V20.1733H143.89C144.428 20.1733 144.596 19.8414 144.596 19.1775V5.23993V5.24388Z" fill="white"/>
<path d="M154.806 19.1103C154.806 18.1145 154.975 17.1542 155.279 16.3244L159.893 16.8539C159.692 17.3834 159.355 18.3792 159.355 19.2091C159.355 19.9401 159.592 20.4697 160.23 20.4697C160.836 20.4697 161.072 19.873 161.072 18.5768C161.072 16.2532 160.467 15.6249 157.939 13.2025C156.086 11.3769 154.774 9.08884 154.774 6.13695C154.774 1.85729 157.165 0 160.398 0C163.363 0 165.686 1.75849 165.686 4.94354C165.686 6.37009 165.485 7.29874 165.112 8.22738L160.463 7.66229C160.868 7.03398 161.104 6.06977 161.104 5.3071C161.104 4.54442 160.904 3.97933 160.294 3.97933C159.684 3.97933 159.351 4.71039 159.351 5.83662C159.351 8.12464 159.993 8.52376 161.674 10.1835C164.37 12.8034 165.682 15.0954 165.682 18.1777C165.682 22.2598 163.66 24.4134 160.362 24.4134C156.523 24.4134 154.806 22.2914 154.806 19.1063V19.1103Z" fill="white"/>
<path d="M174.644 0.331951V4.27967H172.69V24.1171H167.908V4.27967H165.954V0.331951H174.644Z" fill="white"/>
<path d="M175.418 18.6796V0.331951H180.2V19.5094C180.2 20.1061 180.368 20.4697 180.906 20.4697C181.444 20.4697 181.648 20.1061 181.648 19.5094V0.331951H186.129V18.6796C186.129 21.0664 185.892 24.4174 180.91 24.4174C175.928 24.4174 175.418 21.0664 175.418 18.6796Z" fill="white"/>
<path d="M192.696 0.331951C197.679 0.331951 198.184 3.68297 198.184 6.06978V18.3437C198.184 20.766 197.679 24.1171 192.696 24.1171H187.24V0.331951H192.696ZM193.402 5.24388C193.402 4.61161 193.234 4.28362 192.696 4.28362H192.022V20.1733H192.696C193.234 20.1733 193.402 19.8414 193.402 19.1775V5.23993V5.24388Z" fill="white"/>
<path d="M199.231 0.331951H204.013V24.121H199.231V0.331951Z" fill="white"/>
<path d="M204.988 18.6796V5.77339C204.988 3.38658 205.493 0 210.512 0C215.531 0 216 3.38263 216 5.77339V18.6796C216 21.0664 215.527 24.4174 210.512 24.4174C205.497 24.4174 204.988 21.0664 204.988 18.6796ZM211.218 19.4738V4.97515C211.218 4.37845 211.05 3.97933 210.512 3.97933C209.974 3.97933 209.77 4.37845 209.77 4.97515V19.4738C209.77 20.0705 209.97 20.4697 210.512 20.4697C211.054 20.4697 211.218 20.0705 211.218 19.4738Z" fill="white"/>
<path d="M73.3733 2.50805L73.9311 21.7611C73.9426 22.1697 74.2824 22.4948 74.6981 22.4948C75.1129 22.4948 75.4527 22.1697 75.465 21.7611L76.0228 2.50805C76.044 1.77344 75.4447 1.16575 74.6989 1.16575C73.9514 1.16575 73.353 1.77257 73.3733 2.50805Z" fill="white"/>
<path d="M76.6943 2.62073L70.5335 20.9006C70.4024 21.2884 70.6088 21.7084 70.9995 21.8485C71.3892 21.9882 71.8214 21.7971 71.9749 21.4173L79.1839 3.51335C79.4589 2.83017 79.1068 2.05724 78.406 1.80598C77.7035 1.55413 76.9306 1.92276 76.6943 2.62073Z" fill="white"/>
<path d="M76.6943 2.62073L70.5335 20.9006C70.4024 21.2884 70.6088 21.7084 70.9995 21.8485C71.3892 21.9882 71.8214 21.7971 71.9749 21.4173L79.1839 3.51335C79.4589 2.83017 79.1068 2.05724 78.406 1.80598C77.7035 1.55413 76.9306 1.92276 76.6943 2.62073Z" fill="white"/>
<path d="M79.7706 3.84977L67.6344 18.9516C67.3765 19.2719 67.4247 19.7361 67.7431 19.9993C68.0609 20.2619 68.5333 20.228 68.8094 19.9228L81.8002 5.52734C82.2958 4.978 82.2333 4.13305 81.662 3.66085C81.0893 3.18753 80.235 3.2735 79.7706 3.84977Z" fill="white"/>
<path d="M79.7706 3.84977L67.6344 18.9516C67.3765 19.2719 67.4247 19.7361 67.7431 19.9993C68.0609 20.2619 68.5333 20.228 68.8094 19.9228L81.8002 5.52734C82.2958 4.978 82.2333 4.13305 81.662 3.66085C81.0893 3.18753 80.235 3.2735 79.7706 3.84977Z" fill="white"/>
<path d="M82.2344 6.03752L65.5866 16.1399C65.2331 16.3539 65.1171 16.8064 65.325 17.161C65.5324 17.5149 65.9881 17.6422 66.3535 17.4484L83.5591 8.29771C84.2156 7.94847 84.4502 7.13341 84.0773 6.49722C83.7036 5.85952 82.8709 5.65246 82.2344 6.03752Z" fill="white"/>
<path d="M82.2344 6.03752L65.5866 16.1399C65.2331 16.3539 65.1171 16.8064 65.325 17.161C65.5324 17.5149 65.9881 17.6422 66.3535 17.4484L83.5591 8.29771C84.2156 7.94847 84.4502 7.13341 84.0773 6.49722C83.7036 5.85952 82.8709 5.65246 82.2344 6.03752Z" fill="white"/>
<path d="M83.7936 8.92677L64.642 12.8111C64.2355 12.8932 63.9695 13.2793 64.0416 13.6825C64.1137 14.0849 64.4977 14.3581 64.9084 14.2991L84.2536 11.497C84.9917 11.3899 85.4952 10.7031 85.3657 9.97963C85.2359 9.25447 84.5253 8.77936 83.7936 8.92677Z" fill="white"/>
<path d="M83.7936 8.92677L64.642 12.8111C64.2355 12.8932 63.9695 13.2793 64.0416 13.6825C64.1137 14.0849 64.4977 14.3581 64.9084 14.2991L84.2536 11.497C84.9917 11.3899 85.4952 10.7031 85.3657 9.97963C85.2359 9.25447 84.5253 8.77936 83.7936 8.92677Z" fill="white"/>
<path d="M84.2509 12.1633L64.9057 9.36115C64.4952 9.30132 64.1111 9.57449 64.0389 9.97774C63.9669 10.3801 64.2329 10.7662 64.6393 10.8492L83.7908 14.7335C84.5216 14.8816 85.2332 14.4058 85.3627 13.6823C85.4925 12.9572 84.9897 12.2713 84.2509 12.1633Z" fill="white"/>
<path d="M84.2509 12.1633L64.9057 9.36115C64.4952 9.30132 64.1111 9.57449 64.0389 9.97774C63.9669 10.3801 64.2329 10.7662 64.6393 10.8492L83.7908 14.7335C84.5216 14.8816 85.2332 14.4058 85.3627 13.6823C85.4925 12.9572 84.9897 12.2713 84.2509 12.1633Z" fill="white"/>
<path d="M83.5623 15.3647L66.3567 6.21405C65.9917 6.01954 65.5359 6.14683 65.3281 6.50144C65.1207 6.8553 65.2367 7.30774 65.5897 7.52258L82.2376 17.6249C82.8728 18.0103 83.7067 17.8029 84.0796 17.1667C84.4534 16.529 84.2191 15.7152 83.5623 15.3647Z" fill="white"/>
<path d="M83.5623 15.3647L66.3567 6.21405C65.9917 6.01954 65.5359 6.14683 65.3281 6.50144C65.1207 6.8553 65.2367 7.30774 65.5897 7.52258L82.2376 17.6249C82.8728 18.0103 83.7067 17.8029 84.0796 17.1667C84.4534 16.529 84.2191 15.7152 83.5623 15.3647Z" fill="white"/>
<path d="M81.8005 18.1373L68.8097 3.74185C68.5343 3.43611 68.0618 3.40218 67.7434 3.66538C67.4256 3.92803 67.3775 4.39225 67.6347 4.71308L79.7708 19.8149C80.234 20.3911 81.0896 20.4772 81.6609 20.005C82.2335 19.5316 82.2959 18.6879 81.8005 18.1373Z" fill="white"/>
<path d="M81.8005 18.1373L68.8097 3.74185C68.5343 3.43611 68.0618 3.40218 67.7434 3.66538C67.4256 3.92803 67.3775 4.39225 67.6347 4.71308L79.7708 19.8149C80.234 20.3911 81.0896 20.4772 81.6609 20.005C82.2335 19.5316 82.2959 18.6879 81.8005 18.1373Z" fill="white"/>
<path d="M79.1815 20.1488L71.9725 2.2448C71.8198 1.8647 71.3876 1.67365 70.997 1.81369C70.6072 1.95344 70.4008 2.37346 70.5311 2.76158L76.6918 21.0414C76.927 21.7389 77.7011 22.108 78.4019 21.8568C79.1044 21.6049 79.456 20.8331 79.1815 20.1488Z" fill="white"/>
<path d="M5.45586 0.331951C10.4424 0.331951 10.9438 3.38264 10.9438 5.80502V11.8432C10.9438 14.23 10.4383 17.0199 5.45586 17.0199H4.7819V24.121H0V0.331951H5.45586ZM6.16192 5.24388C6.16192 4.61161 5.99343 4.28362 5.45586 4.28362H4.7819V13.0761H5.45586C5.99343 13.0761 6.16192 12.7442 6.16192 12.1158V5.23993V5.24388Z" fill="white"/>
<path d="M11.7903 18.6796V0.331951H16.5722V19.5094C16.5722 20.1061 16.7407 20.4697 17.2782 20.4697C17.8158 20.4697 18.0204 20.1061 18.0204 19.5094V0.331951H22.5014V18.6796C22.5014 21.0664 22.2647 24.4174 17.2823 24.4174C12.2998 24.4174 11.7943 21.0664 11.7943 18.6796H11.7903Z" fill="white"/>
<path d="M29.0685 0.331951C34.051 0.331951 34.5565 3.38264 34.5565 5.80502V11.8432C34.5565 14.23 34.051 17.0199 29.0685 17.0199H28.3945V24.121H23.6126V0.331951H29.0685ZM29.7746 5.24388C29.7746 4.61161 29.6061 4.28362 29.0685 4.28362H28.3945V13.0761H29.0685C29.6061 13.0761 29.7746 12.7442 29.7746 12.1158V5.23993V5.24388Z" fill="white"/>
<path d="M35.431 0.331951H40.2129V24.121H35.431V0.331951Z" fill="white"/>
<path d="M46.1101 20.1693H48.5331V24.1171H41.3242V0.331951H46.1061V20.1733L46.1101 20.1693Z" fill="white"/>
<path d="M56.1111 24.1171L55.8745 19.3711H54.1214L53.8847 24.1171H48.7979L51.7344 0.331951H58.2694L61.1979 24.121H56.1111V24.1171ZM54.1575 18.5452H55.8063L55.1002 4.91194H54.8314L54.1575 18.5452Z" fill="white"/>
</svg>
