<svg width="89" height="88" viewBox="0 0 89 88" fill="none" xmlns="http://www.w3.org/2000/svg">
<path d="M33.2924 62.3925L19.7444 77.392C18.6042 78.6512 16.6531 78.7912 15.341 77.7075C14.026 76.6216 13.8272 74.7063 14.892 73.3849L27.5413 57.6587L9.60601 67.1889C8.09704 67.9883 6.215 67.4631 5.35852 66.0032C4.50022 64.5401 4.9791 62.6734 6.43887 61.7901L23.7756 51.2792L3.63785 54.1935C1.94206 54.4368 0.356036 53.3098 0.0585846 51.6496C-0.2395 49.9858 0.85921 48.3929 2.53791 48.0543L22.5043 44.0083L2.52789 39.9603C0.849824 39.6181 -0.248886 38.0252 0.0485655 36.365C0.34665 34.7012 1.93267 33.5742 3.62783 33.821L23.774 36.7366L6.44818 26.2323C4.99023 25.3459 4.51136 23.4792 5.36783 22.0193C6.22613 20.5562 8.10817 20.031 9.61532 20.8335L27.5446 30.3605L14.897 14.6364C13.835 13.3127 14.0337 11.3975 15.3459 10.3138C16.6609 9.2279 18.612 9.36789 19.7493 10.6293L33.2691 25.5975L26.8554 6.58431C26.3175 4.98298 27.1698 3.25008 28.7795 2.6735C30.3925 2.09568 32.1773 2.88396 32.8077 4.45217L39.0086 19.8387L38.5939 5.53811C38.5101 2.50363 40.9811 0 44.0681 0C47.1478 0 49.6224 2.50721 49.535 5.53811L49.2588 15.0601L52.313 6.00603C53.2888 3.12633 56.4809 1.60545 59.3817 2.64453C62.2756 3.68116 63.7298 6.87015 62.5942 9.68882L59.048 18.4881L65.0088 11.0774C66.9265 8.69981 70.4546 8.34511 72.8194 10.2979C75.1785 12.2462 75.4367 15.7323 73.3901 17.9988L67.0009 25.0725L75.1866 20.1097C77.8149 18.521 81.2536 19.3752 82.7971 22.0063C84.3369 24.6311 83.368 27.9939 80.6572 29.4348L72.1717 33.9437L81.6247 32.0281C84.6466 31.42 87.581 33.3802 88.117 36.3721C88.6518 39.3569 86.5726 42.1908 83.5246 42.6323L74.0187 44.008L83.5146 45.3822C86.5656 45.8279 88.6418 48.6576 88.1057 51.6495C87.5709 54.6344 84.6324 56.5975 81.6147 55.9864L72.169 54.0723L80.6665 58.5876C83.3786 60.0334 84.3462 63.3913 82.8027 66.0224C81.2629 68.6472 77.8193 69.5028 75.196 67.9128L67.0027 62.9454L73.3951 70.0226C75.4413 72.2941 75.1835 75.7752 72.8188 77.7281C70.4596 79.6763 66.9264 79.3211 65.0138 76.944L59.0191 69.4911L62.5776 78.3209C63.7109 81.1442 62.259 84.3286 59.3582 85.3677C56.4642 86.4043 53.2675 84.8813 52.2964 82.0037L47.7118 68.4127L47.2316 84.9727C47.1806 86.6585 45.7774 88 44.0644 88C42.3479 88 40.9447 86.6585 40.8973 84.9727L40.3172 64.9655L32.8243 83.5576C32.1905 85.1246 30.4058 85.9128 28.7961 85.3363C27.1831 84.7584 26.3307 83.0255 26.872 81.4254L33.2924 62.3925Z" fill="white"/>
</svg>
